<svg width="33" height="32" viewBox="0 0 33 32" fill="none" xmlns="http://www.w3.org/2000/svg">
<g clip-path="url(#clip0_1438_44644)">
<path d="M25.5602 8.01464C25.2935 7.22797 24.5468 6.66797 23.6668 6.66797H9.00016C8.12016 6.66797 7.38683 7.22797 7.10683 8.01464L4.3335 16.0013V26.668C4.3335 27.4013 4.9335 28.0013 5.66683 28.0013H7.00016C7.7335 28.0013 8.3335 27.4013 8.3335 26.668V25.3346H24.3335V26.668C24.3335 27.4013 24.9335 28.0013 25.6668 28.0013H27.0002C27.7335 28.0013 28.3335 27.4013 28.3335 26.668V16.0013L25.5602 8.01464ZM9.46683 9.33464H23.1868L24.6268 13.4813H8.02683L9.46683 9.33464ZM25.6668 22.668H7.00016V16.0013H25.6668V22.668Z" fill="#595959"/>
<path d="M10.3335 21.332C11.4381 21.332 12.3335 20.4366 12.3335 19.332C12.3335 18.2275 11.4381 17.332 10.3335 17.332C9.22893 17.332 8.3335 18.2275 8.3335 19.332C8.3335 20.4366 9.22893 21.332 10.3335 21.332Z" fill="#595959"/>
<path d="M22.3335 21.332C23.4381 21.332 24.3335 20.4366 24.3335 19.332C24.3335 18.2275 23.4381 17.332 22.3335 17.332C21.2289 17.332 20.3335 18.2275 20.3335 19.332C20.3335 20.4366 21.2289 21.332 22.3335 21.332Z" fill="#595959"/>
</g>
<defs>
<clipPath id="clip0_1438_44644">
<rect width="32" height="32" fill="white" transform="translate(0.333496)"/>
</clipPath>
</defs>
</svg>
