<svg width="33" height="32" viewBox="0 0 33 32" fill="none" xmlns="http://www.w3.org/2000/svg">
<g clip-path="url(#clip0_1438_44656)">
<path d="M28.5872 14.6654C27.9738 9.10536 23.5605 4.69203 18.0005 4.0787V1.33203H15.3338V4.0787C9.77382 4.69203 5.36049 9.10536 4.74715 14.6654H2.00049V17.332H4.74715C5.36049 22.892 9.77382 27.3054 15.3338 27.9187V30.6654H18.0005V27.9187C23.5605 27.3054 27.9738 22.892 28.5872 17.332H31.3338V14.6654H28.5872ZM16.6672 25.332C11.5072 25.332 7.33382 21.1587 7.33382 15.9987C7.33382 10.8387 11.5072 6.66536 16.6672 6.66536C21.8272 6.66536 26.0005 10.8387 26.0005 15.9987C26.0005 21.1587 21.8272 25.332 16.6672 25.332Z" fill="#595959"/>
</g>
<defs>
<clipPath id="clip0_1438_44656">
<rect width="32" height="32" fill="white" transform="translate(0.666992)"/>
</clipPath>
</defs>
</svg>
