<svg width="20" height="20" viewBox="0 0 20 20" fill="none" xmlns="http://www.w3.org/2000/svg">
<g clip-path="url(#clip0_1438_44472)">
<path d="M16.4747 6.025L16.483 6.01667L13.383 2.91667L12.4997 3.8L14.258 5.55833C13.4747 5.85833 12.9163 6.60833 12.9163 7.5C12.9163 8.65 13.8497 9.58333 14.9997 9.58333C15.2997 9.58333 15.5747 9.51667 15.833 9.40833V15.4167C15.833 15.875 15.458 16.25 14.9997 16.25C14.5413 16.25 14.1663 15.875 14.1663 15.4167V11.6667C14.1663 10.75 13.4163 10 12.4997 10H11.6663V4.16667C11.6663 3.25 10.9163 2.5 9.99967 2.5H4.99967C4.08301 2.5 3.33301 3.25 3.33301 4.16667V17.5H11.6663V11.25H12.9163V15.4167C12.9163 16.5667 13.8497 17.5 14.9997 17.5C16.1497 17.5 17.083 16.5667 17.083 15.4167V7.5C17.083 6.925 16.8497 6.4 16.4747 6.025ZM9.99967 11.25V15.8333H4.99967V10H9.99967V11.25ZM9.99967 8.33333H4.99967V4.16667H9.99967V8.33333ZM14.9997 8.33333C14.5413 8.33333 14.1663 7.95833 14.1663 7.5C14.1663 7.04167 14.5413 6.66667 14.9997 6.66667C15.458 6.66667 15.833 7.04167 15.833 7.5C15.833 7.95833 15.458 8.33333 14.9997 8.33333Z" fill="#999999"/>
</g>
<defs>
<clipPath id="clip0_1438_44472">
<rect width="20" height="20" fill="white"/>
</clipPath>
</defs>
</svg>
