<svg width="20" height="20" viewBox="0 0 20 20" fill="none" xmlns="http://www.w3.org/2000/svg">
<g clip-path="url(#clip0_1438_44467)">
<path d="M17.842 9.6513L10.342 2.1513C10.042 1.8513 9.62533 1.66797 9.16699 1.66797H3.33366C2.41699 1.66797 1.66699 2.41797 1.66699 3.33464V9.16797C1.66699 9.6263 1.85033 10.043 2.15866 10.3513L9.65866 17.8513C9.95866 18.1513 10.3753 18.3346 10.8337 18.3346C11.292 18.3346 11.7087 18.1513 12.0087 17.843L17.842 12.0096C18.1503 11.7096 18.3337 11.293 18.3337 10.8346C18.3337 10.3763 18.142 9.9513 17.842 9.6513ZM10.8337 16.6763L3.33366 9.16797V3.33464H9.16699V3.3263L16.667 10.8263L10.8337 16.6763Z" fill="#999999"/>
<path d="M5.41699 6.66797C6.10735 6.66797 6.66699 6.10832 6.66699 5.41797C6.66699 4.72761 6.10735 4.16797 5.41699 4.16797C4.72664 4.16797 4.16699 4.72761 4.16699 5.41797C4.16699 6.10832 4.72664 6.66797 5.41699 6.66797Z" fill="#999999"/>
</g>
<defs>
<clipPath id="clip0_1438_44467">
<rect width="20" height="20" fill="white"/>
</clipPath>
</defs>
</svg>
