<svg width="24" height="18" viewBox="0 0 24 18" fill="none" xmlns="http://www.w3.org/2000/svg">
<g clip-path="url(#clip0_1438_44479)">
<path d="M3.75 13.25V4.75C3.75 4.19772 4.19772 3.75 4.75 3.75H19.25C19.8023 3.75 20.25 4.19772 20.25 4.75V13.25C20.25 13.8023 19.8023 14.25 19.25 14.25H4.75C4.19772 14.25 3.75 13.8023 3.75 13.25Z" stroke="#999999" stroke-width="1.5"/>
<circle cx="12" cy="9" r="2" stroke="#999999" stroke-width="1.5"/>
<path d="M7.25 4C7.25 4.4268 7.16594 4.84941 7.00261 5.24372C6.83928 5.63803 6.59989 5.99631 6.2981 6.2981C5.99631 6.59989 5.63803 6.83928 5.24372 7.00261C4.84941 7.16594 4.4268 7.25 4 7.25" stroke="#999999" stroke-width="1.5"/>
<path d="M16.75 4C16.75 4.4268 16.8341 4.84941 16.9974 5.24372C17.1607 5.63803 17.4001 5.99631 17.7019 6.2981C18.0037 6.59989 18.362 6.83928 18.7563 7.00261C19.1506 7.16594 19.5732 7.25 20 7.25" stroke="#999999" stroke-width="1.5"/>
<path d="M7.25 14C7.25 13.5732 7.16594 13.1506 7.00261 12.7563C6.83928 12.362 6.59989 12.0037 6.2981 11.7019C5.99631 11.4001 5.63803 11.1607 5.24372 10.9974C4.84941 10.8341 4.4268 10.75 4 10.75" stroke="#999999" stroke-width="1.5"/>
<path d="M16.75 14C16.75 13.5732 16.8341 13.1506 16.9974 12.7563C17.1607 12.362 17.4001 12.0037 17.7019 11.7019C18.0037 11.4001 18.362 11.1607 18.7563 10.9974C19.1506 10.8341 19.5732 10.75 20 10.75" stroke="#999999" stroke-width="1.5"/>
</g>
<defs>
<clipPath id="clip0_1438_44479">
<rect width="24" height="18" fill="white"/>
</clipPath>
</defs>
</svg>
